<?xml version="1.0" encoding="UTF-8" standalone="no"?>
<!DOCTYPE svg PUBLIC "-//W3C//DTD SVG 1.1//EN" "http://www.w3.org/Graphics/SVG/1.1/DTD/svg11.dtd">
<svg width="100%" height="100%" viewBox="0 0 3300 2550" version="1.1" xmlns="http://www.w3.org/2000/svg" xmlns:xlink="http://www.w3.org/1999/xlink" xml:space="preserve" xmlns:serif="http://www.serif.com/" style="fill-rule:evenodd;clip-rule:evenodd;stroke-linejoin:round;stroke-miterlimit:2;">
    <g transform="matrix(1.20472,0,0,1,-644.874,0)">
        <g transform="matrix(332.027,0,0,400,1086.29,1356.85)">
            <path d="M1.094,-3.017L1.099,-0.524L0.995,-0.524L0.995,-0.628L0.628,-0.628L0.628,-0.105L0.838,-0.105L0.838,2.608L0.314,2.608L0.314,-0.105L0.524,-0.105L0.524,-0.628L0.157,-0.628L0.157,-0.524L0.052,-0.524L0.047,-3.017L1.094,-3.017Z" style="fill:rgb(51,204,0);fill-rule:nonzero;"/>
        </g>
        <g transform="matrix(1,0,0,1,-18.2615,0)">
            <g transform="matrix(332.027,0,0,400,1479.08,1356.85)">
                <path d="M0.261,-0.105L0.566,-0.628L0.366,-0.628L0.366,-3.017L0.995,-3.017L0.995,-0.628L0.789,-0.628L1.094,-0.105L1.309,-0.105L1.309,2.608L0.785,2.608L0.785,-0.105L0.969,-0.105L0.911,-0.209L0.445,-0.209L0.386,-0.105L0.576,-0.105L0.576,2.608L0.052,2.608L0.052,-0.105L0.261,-0.105ZM0.852,-0.314L0.678,-0.627L0.503,-0.314L0.852,-0.314Z" style="fill:rgb(51,204,0);fill-rule:nonzero;"/>
            </g>
            <g transform="matrix(0.966875,0,0,1,313.796,0)">
                <rect x="1223.06" y="150" width="431.656" height="956.051" style="fill:rgb(51,204,0);"/>
            </g>
        </g>
        <g transform="matrix(332.027,0,0,400,1897.59,1356.85)">
            <path d="M0.145,-0.367C0.145,-0.328 0.155,-0.291 0.174,-0.256C0.193,-0.221 0.22,-0.19 0.255,-0.163C0.289,-0.136 0.329,-0.115 0.376,-0.099C0.422,-0.083 0.472,-0.075 0.526,-0.075C0.564,-0.075 0.6,-0.079 0.635,-0.088C0.669,-0.096 0.701,-0.107 0.73,-0.122C0.759,-0.136 0.785,-0.153 0.808,-0.173C0.83,-0.192 0.85,-0.213 0.865,-0.236L0.946,-0.156C0.924,-0.129 0.968,2.424 0.938,2.446C0.908,2.468 0.805,2.549 0.769,2.564C0.733,2.58 0.695,2.592 0.654,2.601C0.612,2.61 0.57,2.614 0.526,2.614C0.457,2.614 0.393,2.604 0.333,2.583C0.272,2.563 0.22,2.535 0.175,2.499C0.13,2.464 0.107,2.418 0.081,2.37C0.055,2.323 0.079,-0.313 0.079,-0.367C0.079,-0.421 0.064,-2.731 0.09,-2.778C0.116,-2.825 0.13,-2.867 0.175,-2.903C0.22,-2.938 0.272,-2.966 0.333,-2.987C0.393,-3.007 0.457,-3.017 0.526,-3.017C0.587,-3.017 0.644,-3.009 0.698,-2.993C0.752,-2.977 0.801,-2.955 0.845,-2.927L0.845,-2.992L0.949,-2.992L0.949,-0.524L0.845,-0.524L0.845,-0.525C0.828,-0.544 0.808,-0.561 0.786,-0.578C0.763,-0.594 0.738,-0.608 0.711,-0.62C0.684,-0.632 0.655,-0.641 0.624,-0.648C0.592,-0.655 0.56,-0.658 0.526,-0.658C0.472,-0.658 0.422,-0.65 0.376,-0.634C0.329,-0.618 0.289,-0.597 0.255,-0.57C0.22,-0.543 0.193,-0.513 0.174,-0.478C0.155,-0.443 0.145,-0.406 0.145,-0.367Z" style="fill:rgb(51,204,0);fill-rule:nonzero;"/>
        </g>
        <g>
            <g transform="matrix(332.027,0,0,400,2224.48,1356.85)">
                <path d="M1.175,-0.105L1.175,2.608L1.048,2.608L1.045,2.608C1.004,2.607 0.903,2.622 0.868,2.608C0.833,2.594 0.866,-0.055 0.84,-0.08L0.56,-0.361L0.366,-0.249L0.366,-0.105L0.576,-0.105L0.576,2.608L0.052,2.608L0.052,-0.105L0.262,-0.105L0.262,-0.628L0.052,-0.628L0.052,-3.017L0.576,-3.017L0.576,-0.628L0.366,-0.628L0.366,-0.37L0.813,-0.628L0.681,-0.628L0.681,-3.017L1.175,-3.017L1.175,-0.628L1.023,-0.628L0.653,-0.415L0.914,-0.154C0.931,-0.139 0.951,-0.127 0.974,-0.118C0.997,-0.109 1.021,-0.105 1.048,-0.105L1.175,-0.105Z" style="fill:rgb(51,204,0);fill-rule:nonzero;"/>
            </g>
            <g transform="matrix(0.830067,0,0,1.00406,535.289,-9.74253)">
                <rect x="1408.04" y="1320.79" width="117.001" height="1079.21" style="fill:rgb(51,204,0);"/>
            </g>
            <g transform="matrix(0.830067,0,0,1.00406,410.497,-9.74253)">
                <rect x="1408.04" y="1320.79" width="117.001" height="1079.21" style="fill:rgb(51,204,0);"/>
            </g>
            <g transform="matrix(0.979607,0,0,1,171.17,0)">
                <rect x="2328.64" y="1322.8" width="106.285" height="1079.63" style="fill:rgb(51,204,0);stroke:rgb(235,235,235);stroke-width:0.91px;stroke-linecap:round;stroke-miterlimit:1.5;"/>
            </g>
        </g>
        <g transform="matrix(332.027,0,0,400,2618.09,1356.85)">
            <path d="M0.938,-0.197C0.938,-0.154 0.925,2.467 0.899,2.495C0.872,2.524 0.838,2.546 0.796,2.563C0.753,2.58 0.706,2.591 0.654,2.598C0.601,2.605 0.549,2.608 0.497,2.608C0.432,2.608 0.371,2.603 0.314,2.594C0.256,2.585 0.204,2.573 0.157,2.557L0.157,2.585L0.052,2.585L0.052,-0.209L0.157,-0.209L0.157,-0.134C0.191,-0.116 0.238,-0.101 0.298,-0.091C0.358,-0.08 0.424,-0.074 0.497,-0.074C0.553,-0.074 0.601,-0.077 0.642,-0.084C0.683,-0.091 0.716,-0.099 0.743,-0.111C0.769,-0.122 0.788,-0.134 0.801,-0.149C0.814,-0.163 0.82,-0.178 0.82,-0.193C0.82,-0.224 0.807,-0.248 0.78,-0.266C0.752,-0.283 0.715,-0.294 0.667,-0.298L0.325,-0.331C0.307,-0.333 0.284,-0.337 0.255,-0.343C0.226,-0.349 0.198,-0.359 0.171,-0.374C0.143,-0.388 0.119,-0.408 0.099,-0.434C0.079,-0.46 0.069,-0.494 0.069,-0.536C0.069,-0.579 0.082,-2.876 0.107,-2.905C0.132,-2.933 0.165,-2.955 0.206,-2.972C0.246,-2.989 0.292,-3 0.343,-3.007C0.394,-3.014 0.446,-3.017 0.498,-3.017C0.557,-3.017 0.612,-3.013 0.665,-3.005C0.718,-2.996 0.766,-2.984 0.809,-2.969L0.809,-2.994L0.913,-2.994L0.913,-0.524L0.809,-0.524L0.809,-0.6C0.777,-0.617 0.734,-0.631 0.68,-0.643C0.625,-0.654 0.565,-0.659 0.498,-0.659C0.442,-0.659 0.394,-0.656 0.355,-0.649C0.315,-0.642 0.282,-0.634 0.258,-0.623C0.233,-0.612 0.214,-0.599 0.203,-0.585C0.192,-0.57 0.186,-0.555 0.186,-0.54C0.186,-0.509 0.2,-0.485 0.227,-0.468C0.254,-0.45 0.292,-0.439 0.34,-0.435L0.681,-0.402C0.699,-0.4 0.723,-0.396 0.752,-0.39C0.781,-0.384 0.809,-0.374 0.837,-0.36C0.864,-0.345 0.888,-0.325 0.908,-0.299C0.928,-0.273 0.938,-0.239 0.938,-0.197Z" style="fill:rgb(51,204,0);fill-rule:nonzero;"/>
        </g>
        <g transform="matrix(332.027,0,0,400,767.067,1356.85)">
            <path d="M0.938,-0.197C0.938,-0.154 0.952,2.467 0.926,2.495C0.9,2.524 0.838,2.546 0.796,2.563C0.753,2.58 0.706,2.591 0.654,2.598C0.601,2.605 0.549,2.608 0.497,2.608C0.432,2.608 0.371,2.603 0.314,2.594C0.256,2.585 0.204,2.573 0.157,2.557L0.157,2.585L0.052,2.585L0.052,-0.209L0.157,-0.209L0.157,-0.134C0.191,-0.116 0.238,-0.101 0.298,-0.091C0.358,-0.08 0.424,-0.074 0.497,-0.074C0.553,-0.074 0.601,-0.077 0.642,-0.084C0.683,-0.091 0.716,-0.099 0.743,-0.111C0.769,-0.122 0.788,-0.134 0.801,-0.149C0.814,-0.163 0.82,-0.178 0.82,-0.193C0.82,-0.224 0.807,-0.248 0.78,-0.266C0.752,-0.283 0.715,-0.294 0.667,-0.298L0.325,-0.331C0.307,-0.333 0.284,-0.337 0.255,-0.343C0.226,-0.349 0.198,-0.359 0.171,-0.374C0.143,-0.388 0.119,-0.408 0.099,-0.434C0.079,-0.46 0.069,-0.494 0.069,-0.536C0.069,-0.579 0.082,-2.876 0.107,-2.905C0.132,-2.933 0.165,-2.955 0.206,-2.972C0.246,-2.989 0.292,-3 0.343,-3.007C0.394,-3.014 0.446,-3.017 0.498,-3.017C0.557,-3.017 0.612,-3.013 0.665,-3.005C0.718,-2.996 0.766,-2.984 0.809,-2.969L0.809,-2.994L0.928,-2.994L0.928,-0.524L0.809,-0.524L0.809,-0.6C0.777,-0.617 0.734,-0.631 0.68,-0.643C0.625,-0.654 0.565,-0.659 0.498,-0.659C0.442,-0.659 0.394,-0.656 0.355,-0.649C0.315,-0.642 0.282,-0.634 0.258,-0.623C0.233,-0.612 0.214,-0.599 0.203,-0.585C0.192,-0.57 0.186,-0.555 0.186,-0.54C0.186,-0.509 0.2,-0.485 0.227,-0.468C0.254,-0.45 0.292,-0.439 0.34,-0.435L0.681,-0.402C0.699,-0.4 0.723,-0.396 0.752,-0.39C0.781,-0.384 0.809,-0.374 0.837,-0.36C0.864,-0.345 0.888,-0.325 0.908,-0.299C0.928,-0.273 0.938,-0.239 0.938,-0.197Z" style="fill:rgb(51,204,0);fill-rule:nonzero;"/>
        </g>
    </g>
    <rect x="682.6" y="1316.41" width="420.8" height="1083.59" style="fill:rgb(51,204,0);"/>
</svg>
